<svg width="293" height="81" viewBox="0 0 293 81" fill="none" xmlns="http://www.w3.org/2000/svg">
<rect width="293" height="81" rx="15" fill="black"/>
<path d="M104.579 47.1077H94.0909L92.2889 52.6936H88L96.9742 25.3147H101.732L110.706 52.6936H106.381L104.579 47.1077ZM103.426 43.4493L99.3529 30.7433L95.2443 43.4493H103.426Z" fill="white"/>
<path d="M118.717 34.205C119.413 33.2084 120.362 32.3692 121.564 31.6874C122.765 31.0055 124.123 30.6646 125.636 30.6646C127.366 30.6646 128.94 31.1366 130.358 32.0807C131.799 32.9986 132.929 34.2968 133.746 35.9752C134.563 37.6536 134.971 39.5811 134.971 41.7578C134.971 43.9344 134.563 45.8882 133.746 47.619C132.929 49.3237 131.799 50.6611 130.358 51.6315C128.94 52.5756 127.366 53.0476 125.636 53.0476C124.123 53.0476 122.777 52.7198 121.6 52.0642C120.423 51.3823 119.461 50.5431 118.717 49.5466V63H114.608V31.0186H118.717V34.205ZM130.79 41.7578C130.79 40.2629 130.502 38.9779 129.925 37.9027C129.373 36.8012 128.628 35.9752 127.691 35.4244C126.778 34.8475 125.793 34.559 124.735 34.559C123.702 34.559 122.717 34.8475 121.78 35.4244C120.867 36.0014 120.122 36.8406 119.546 37.942C118.993 39.0435 118.717 40.3416 118.717 41.8364C118.717 43.3313 118.993 44.6425 119.546 45.7702C120.122 46.8716 120.867 47.7108 121.78 48.2878C122.717 48.8647 123.702 49.1532 124.735 49.1532C125.793 49.1532 126.778 48.8647 127.691 48.2878C128.628 47.6846 129.373 46.8192 129.925 45.6915C130.502 44.5638 130.79 43.2526 130.79 41.7578Z" fill="white"/>
<path d="M143.143 34.205C143.84 33.2084 144.789 32.3692 145.99 31.6874C147.191 31.0055 148.549 30.6646 150.063 30.6646C151.793 30.6646 153.367 31.1366 154.784 32.0807C156.226 32.9986 157.355 34.2968 158.172 35.9752C158.989 37.6536 159.397 39.5811 159.397 41.7578C159.397 43.9344 158.989 45.8882 158.172 47.619C157.355 49.3237 156.226 50.6611 154.784 51.6315C153.367 52.5756 151.793 53.0476 150.063 53.0476C148.549 53.0476 147.203 52.7198 146.026 52.0642C144.849 51.3823 143.888 50.5431 143.143 49.5466V63H139.034V31.0186H143.143V34.205ZM155.217 41.7578C155.217 40.2629 154.928 38.9779 154.352 37.9027C153.799 36.8012 153.054 35.9752 152.117 35.4244C151.204 34.8475 150.219 34.559 149.162 34.559C148.129 34.559 147.143 34.8475 146.206 35.4244C145.293 36.0014 144.548 36.8406 143.972 37.942C143.419 39.0435 143.143 40.3416 143.143 41.8364C143.143 43.3313 143.419 44.6425 143.972 45.7702C144.548 46.8716 145.293 47.7108 146.206 48.2878C147.143 48.8647 148.129 49.1532 149.162 49.1532C150.219 49.1532 151.204 48.8647 152.117 48.2878C153.054 47.6846 153.799 46.8192 154.352 45.6915C154.928 44.5638 155.217 43.2526 155.217 41.7578Z" fill="white"/>
<path d="M181.076 52.9689C179.394 52.9689 177.88 52.6542 176.535 52.0248C175.189 51.3692 174.132 50.4513 173.363 49.2712C172.594 48.0911 172.21 46.7143 172.21 45.1408H176.607C176.703 46.3209 177.124 47.2912 177.868 48.0518C178.637 48.8123 179.707 49.1925 181.076 49.1925C182.494 49.1925 183.599 48.8254 184.392 48.0911C185.185 47.3306 185.581 46.3602 185.581 45.1801C185.581 44.2623 185.329 43.5148 184.824 42.9379C184.344 42.3609 183.731 41.9151 182.986 41.6004C182.265 41.2857 181.256 40.9448 179.959 40.5776C178.325 40.1056 176.991 39.6335 175.958 39.1615C174.949 38.6632 174.084 37.9027 173.363 36.8799C172.642 35.8571 172.282 34.4934 172.282 32.7888C172.282 31.2153 172.642 29.8385 173.363 28.6584C174.084 27.4783 175.093 26.5735 176.391 25.9441C177.688 25.3147 179.19 25 180.896 25C183.323 25 185.305 25.6687 186.843 27.0062C188.404 28.3175 189.269 30.127 189.438 32.4348H184.896C184.824 31.4382 184.392 30.5859 183.599 29.8778C182.806 29.1698 181.761 28.8157 180.463 28.8157C179.286 28.8157 178.325 29.1435 177.58 29.7992C176.835 30.4548 176.463 31.3989 176.463 32.6315C176.463 33.4707 176.691 34.1656 177.148 34.7164C177.628 35.2409 178.229 35.6605 178.95 35.9752C179.67 36.2899 180.656 36.6308 181.905 36.9979C183.563 37.4962 184.908 37.9945 185.942 38.4928C186.999 38.991 187.888 39.7647 188.609 40.8137C189.354 41.8364 189.726 43.2133 189.726 44.9441C189.726 46.334 189.378 47.6453 188.681 48.8778C188.008 50.1104 187.011 51.107 185.689 51.8675C184.392 52.6018 182.854 52.9689 181.076 52.9689Z" fill="white"/>
<path d="M199.368 34.677V46.6749C199.368 47.4879 199.536 48.078 199.872 48.4451C200.232 48.7861 200.833 48.9565 201.674 48.9565H204.197V52.6936H200.953C199.103 52.6936 197.686 52.2215 196.7 51.2774C195.715 50.3333 195.223 48.7992 195.223 46.6749V34.677H192.88V31.0186H195.223V25.6294H199.368V31.0186H204.197V34.677H199.368Z" fill="white"/>
<path d="M216.598 53.0476C214.724 53.0476 213.03 52.5887 211.516 51.6708C210.002 50.7267 208.813 49.4155 207.948 47.7371C207.083 46.0324 206.65 44.0656 206.65 41.8364C206.65 39.6335 207.095 37.6798 207.984 35.9752C208.873 34.2705 210.086 32.9593 211.624 32.0414C213.162 31.1235 214.88 30.6646 216.778 30.6646C218.676 30.6646 220.394 31.1235 221.932 32.0414C223.469 32.9593 224.683 34.2705 225.572 35.9752C226.461 37.6798 226.905 39.6335 226.905 41.8364C226.905 44.0393 226.449 45.9931 225.536 47.6977C224.623 49.4023 223.373 50.7267 221.788 51.6708C220.226 52.5887 218.496 53.0476 216.598 53.0476ZM216.598 49.1532C217.655 49.1532 218.64 48.8778 219.553 48.3271C220.49 47.7764 221.247 46.9503 221.824 45.8489C222.4 44.7474 222.689 43.4099 222.689 41.8364C222.689 40.2629 222.412 38.9386 221.86 37.8634C221.307 36.7619 220.574 35.9358 219.661 35.3851C218.748 34.8344 217.763 34.559 216.706 34.559C215.649 34.559 214.663 34.8344 213.75 35.3851C212.861 35.9358 212.153 36.7619 211.624 37.8634C211.095 38.9386 210.831 40.2629 210.831 41.8364C210.831 44.1705 211.372 45.98 212.453 47.265C213.558 48.5238 214.94 49.1532 216.598 49.1532Z" fill="white"/>
<path d="M235.076 34.1656C235.676 33.0642 236.469 32.2119 237.454 31.6087C238.464 30.9793 239.653 30.6646 241.023 30.6646V35.3064H239.977C238.368 35.3064 237.142 35.7522 236.301 36.6439C235.484 37.5355 235.076 39.0828 235.076 41.2857V52.6936H230.967V31.0186H235.076V34.1656Z" fill="white"/>
<path d="M263 41.3251C263 42.138 262.952 42.8723 262.856 43.528H247.683C247.803 45.2588 248.391 46.6487 249.449 47.6977C250.506 48.7467 251.803 49.2712 253.341 49.2712C255.552 49.2712 257.113 48.2616 258.026 46.2422H262.459C261.859 48.2353 260.765 49.8744 259.18 51.1594C257.618 52.4182 255.672 53.0476 253.341 53.0476C251.443 53.0476 249.737 52.5887 248.223 51.6708C246.733 50.7267 245.556 49.4155 244.691 47.7371C243.85 46.0324 243.43 44.0656 243.43 41.8364C243.43 39.6073 243.838 37.6536 244.655 35.9752C245.496 34.2705 246.661 32.9593 248.151 32.0414C249.665 31.1235 251.395 30.6646 253.341 30.6646C255.215 30.6646 256.885 31.1104 258.351 32.0021C259.816 32.8937 260.958 34.1525 261.775 35.7785C262.592 37.3782 263 39.2271 263 41.3251ZM258.711 39.9089C258.687 38.2567 258.146 36.9324 257.089 35.9358C256.032 34.9393 254.723 34.441 253.161 34.441C251.743 34.441 250.53 34.9393 249.521 35.9358C248.511 36.9061 247.911 38.2305 247.719 39.9089H258.711Z" fill="white"/>
<path d="M70.3428 61.2469C68.1432 64.5946 65.8111 67.8614 62.2599 67.9154C58.7087 67.9964 57.5692 65.7826 53.541 65.7826C49.4863 65.7826 48.2407 67.8614 44.875 67.9964C41.4033 68.1314 38.7797 64.4326 36.5536 61.1659C32.0219 54.4973 28.5502 42.2131 33.2144 33.9517C35.52 29.8479 39.6543 27.2561 44.133 27.1751C47.5252 27.1211 50.7583 29.524 52.8519 29.524C54.919 29.524 58.8412 26.6352 62.9489 27.0671C64.6715 27.1481 69.4948 27.7691 72.5954 32.4128C72.3569 32.5748 66.8446 35.8685 66.8976 42.6991C66.9771 50.8526 73.9205 53.5794 74 53.6064C73.9205 53.7954 72.8869 57.4941 70.3428 61.2469ZM55.2105 18.0497C57.1451 15.8089 60.3518 14.108 63.0019 14C63.3465 17.1588 62.1009 20.3446 60.2458 22.6124C58.4172 24.9073 55.3961 26.6892 52.4279 26.4462C52.0304 23.3414 53.5145 20.1016 55.2105 18.0497Z" fill="white"/>
</svg>
