<svg width="61" height="56" viewBox="0 0 61 56" fill="none" xmlns="http://www.w3.org/2000/svg">
<path d="M61 25.9949C61 25.4888 60.7952 24.9709 60.3978 24.5826C59.6028 23.8058 58.302 23.8058 57.5071 24.5826L30.2983 51.1688L3.48692 24.9709C2.69197 24.1942 1.39115 24.1942 0.596209 24.9709C-0.198736 25.7477 -0.198736 27.0188 0.596209 27.7955L28.8529 55.4174C29.6478 56.1942 30.9487 56.1942 31.7436 55.4174L60.3978 27.4189C60.8073 27.0188 61 26.5127 61 25.9949Z" fill="black"/>
<path d="M47 11.1221C47 10.8375 46.8892 10.5462 46.6742 10.3277C46.2442 9.89077 45.5404 9.89077 45.1104 10.3277L30.3909 25.2825L15.8864 10.5462C15.4563 10.1092 14.7526 10.1092 14.3225 10.5462C13.8925 10.9831 13.8925 11.6981 14.3225 12.135L29.6089 27.6723C30.039 28.1092 30.7427 28.1092 31.1728 27.6723L46.6742 11.9231C46.8957 11.6981 47 11.4134 47 11.1221Z" fill="black"/>
<path d="M36 0.374046C36 0.279158 35.9631 0.182052 35.8914 0.109231C35.7481 -0.0364104 35.5135 -0.0364104 35.3701 0.109231L30.4636 5.09415L25.6288 0.182052C25.4854 0.0364103 25.2509 0.0364103 25.1075 0.182052C24.9642 0.327694 24.9642 0.566017 25.1075 0.711659L30.203 5.89077C30.3463 6.03641 30.5809 6.03641 30.7243 5.89077L35.8914 0.641045C35.9652 0.566017 36 0.471129 36 0.374046Z" fill="black"/>
</svg>
