<svg width="293" height="81" viewBox="0 0 293 81" fill="none" xmlns="http://www.w3.org/2000/svg">
<rect width="293" height="81" rx="15" fill="black"/>
<g clip-path="url(#clip0_511_17)">
<path d="M270.29 36.4412L265.484 48.611H265.34L260.326 36.4412H255.792L263.306 53.4535L259.013 62.9158H263.418L275 36.4412H270.29ZM236.329 26.3422H232.131V54.4094H236.329V26.3422ZM220.533 26.3422H210.441V54.4094H214.67V43.7847H220.549C221.734 43.825 222.916 43.6308 224.025 43.2133C225.134 42.7959 226.149 42.1635 227.01 41.3528C227.872 40.5422 228.563 39.5695 229.043 38.4911C229.523 37.4128 229.783 36.2504 229.808 35.0713C229.783 33.8901 229.523 32.7256 229.042 31.6453C228.561 30.565 227.869 29.5905 227.006 28.7783C226.143 27.9662 225.127 27.3326 224.015 26.9143C222.904 26.496 221.72 26.3019 220.533 26.3422ZM220.645 39.8658H214.67V30.3081H220.661C221.936 30.3081 223.158 30.8116 224.059 31.7078C224.961 32.604 225.467 33.8195 225.467 35.0869C225.467 36.3544 224.961 37.5699 224.059 38.4661C223.158 39.3623 221.936 39.8658 220.661 39.8658H220.645H220.645ZM246.677 35.8358C245.14 35.748 243.61 36.1081 242.276 36.872C240.941 37.6359 239.859 38.7704 239.164 40.1364L242.912 41.7296C243.284 41.0541 243.846 40.5013 244.529 40.1391C245.212 39.7769 245.986 39.621 246.757 39.6906C247.287 39.6379 247.821 39.6898 248.33 39.8432C248.84 39.9967 249.313 40.2486 249.724 40.5847C250.135 40.9207 250.475 41.3341 250.724 41.8012C250.974 42.2684 251.128 42.7799 251.178 43.3065V43.5933C249.835 42.8709 248.332 42.4931 246.805 42.4941C242.784 42.4941 238.683 44.6926 238.683 48.866C238.683 52.6254 241.967 55.0466 245.684 55.0466C246.742 55.1133 247.798 54.8938 248.74 54.4113C249.682 53.9289 250.475 53.2016 251.034 52.3068H251.195V54.473H255.296V43.6731C255.296 38.6872 251.547 35.9156 246.709 35.9156L246.677 35.8358ZM246.181 51.2236C244.803 51.2236 242.88 50.5228 242.88 48.8342C242.88 46.668 245.267 45.8399 247.35 45.8399C248.693 45.8035 250.021 46.1282 251.194 46.7791C251.04 47.9972 250.447 49.1184 249.525 49.9355C248.603 50.7525 247.415 51.2101 246.181 51.2236ZM94.2817 55.0148C85.9861 55.0421 79.2104 48.4323 79.0788 40.1844C79.2109 31.9365 85.9861 25.3267 94.2817 25.354C96.1812 25.3226 98.0678 25.6686 99.8311 26.3716C101.594 27.0746 103.199 28.1206 104.55 29.4482L101.651 32.2996C99.684 30.3834 97.0351 29.3182 94.2817 29.3366C88.2921 29.3366 83.4364 34.1649 83.4364 40.1208C83.4364 46.0767 88.2921 50.905 94.2817 50.905C95.6815 50.9621 97.0778 50.7264 98.3803 50.2132C99.6828 49.7 100.862 48.9208 101.843 47.9258C103.147 46.5282 103.932 44.7302 104.07 42.8288H94.2817V38.8943H108.059C108.209 39.73 108.279 40.5778 108.267 41.4271C108.405 44.9534 107.132 48.3904 104.726 50.9848C103.368 52.3489 101.736 53.4128 99.9362 54.1072C98.1365 54.8015 96.2097 55.1111 94.2817 55.0148ZM129.573 45.4571C129.626 46.7315 129.419 48.0034 128.966 49.1964C128.512 50.3894 127.82 51.4788 126.932 52.3992C126.044 53.3196 124.978 54.0519 123.798 54.5522C122.618 55.0524 121.348 55.3103 120.065 55.3103C118.783 55.3103 117.513 55.0524 116.333 54.5522C115.153 54.0519 114.087 53.3196 113.199 52.3992C112.311 51.4788 111.619 50.3894 111.165 49.1964C110.711 48.0034 110.505 46.7315 110.558 45.4571C110.505 44.1827 110.711 42.9107 111.165 41.7178C111.619 40.5248 112.311 39.4354 113.199 38.515C114.087 37.5946 115.153 36.8623 116.333 36.362C117.513 35.8618 118.783 35.6039 120.065 35.6039C121.348 35.6039 122.618 35.8618 123.798 36.362C124.978 36.8623 126.044 37.5946 126.932 38.515C127.82 39.4354 128.512 40.5248 128.966 41.7178C129.419 42.9107 129.626 44.1827 129.573 45.4571ZM125.408 45.4571C125.478 44.7172 125.393 43.9709 125.156 43.2659C124.92 42.561 124.538 41.9129 124.035 41.3632C123.532 40.8135 122.919 40.3743 122.235 40.0738C121.552 39.7733 120.813 39.6181 120.065 39.6181C119.318 39.6181 118.579 39.7733 117.895 40.0738C117.212 40.3743 116.599 40.8135 116.096 41.3632C115.593 41.9129 115.211 42.561 114.975 43.2659C114.738 43.9709 114.652 44.7172 114.723 45.4571C114.652 46.197 114.738 46.9433 114.975 47.6483C115.211 48.3532 115.593 49.0013 116.096 49.551C116.599 50.1007 117.212 50.5399 117.895 50.8404C118.579 51.1409 119.318 51.2961 120.065 51.2961C120.813 51.2961 121.552 51.1409 122.235 50.8404C122.919 50.5399 123.532 50.1007 124.035 49.551C124.538 49.0013 124.92 48.3532 125.156 47.6483C125.393 46.9433 125.478 46.197 125.408 45.4571ZM150.879 45.4571C150.879 50.6742 146.626 54.9032 141.38 54.9032C136.133 54.9032 131.88 50.6742 131.88 45.4571C131.88 40.24 136.133 36.011 141.38 36.011C146.626 36.011 150.879 40.24 150.879 45.4571ZM146.731 45.4571C146.801 44.7172 146.715 43.9709 146.479 43.2659C146.242 42.561 145.86 41.9129 145.357 41.3632C144.854 40.8135 144.242 40.3743 143.558 40.0738C142.874 39.7733 142.135 39.6181 141.388 39.6181C140.641 39.6181 139.901 39.7733 139.218 40.0738C138.534 40.3743 137.921 40.8135 137.418 41.3632C136.916 41.9129 136.534 42.561 136.297 43.2659C136.061 43.9709 135.975 44.7172 136.045 45.4571C135.974 46.1971 136.06 46.9437 136.296 47.649C136.532 48.3543 136.914 49.0027 137.417 49.5527C137.92 50.1027 138.533 50.5421 139.217 50.8428C139.901 51.1435 140.64 51.2988 141.388 51.2988C142.135 51.2988 142.875 51.1435 143.558 50.8428C144.242 50.5421 144.855 50.1027 145.358 49.5527C145.861 49.0027 146.243 48.3543 146.479 47.649C146.715 46.9437 146.801 46.1971 146.731 45.4571ZM171.673 36.4892V53.6449C171.673 60.6854 167.46 63.5848 162.494 63.5848C160.673 63.6 158.889 63.0786 157.367 62.0863C155.844 61.0941 154.651 59.6755 153.939 58.0097L157.575 56.4165C157.953 57.3891 158.61 58.2296 159.464 58.8331C160.319 59.4366 161.334 59.7763 162.381 59.8098C165.586 59.8098 167.54 57.8506 167.54 54.2023V52.8324H167.38C166.751 53.5297 165.98 54.0851 165.118 54.4616C164.256 54.838 163.323 55.0266 162.381 55.0148C157.073 55.0148 152.77 50.7359 152.77 45.4571C152.77 40.1783 157.073 35.8994 162.381 35.8994C163.329 35.8786 164.27 36.0581 165.143 36.4261C166.016 36.794 166.8 37.342 167.444 38.0338H167.604V36.4412H171.673V36.4892ZM167.94 45.5051C167.999 44.7841 167.912 44.0588 167.683 43.372C167.455 42.6853 167.09 42.0512 166.61 41.5075C166.131 40.9637 165.546 40.5212 164.891 40.2064C164.236 39.8916 163.524 39.7109 162.798 39.6749C162.057 39.6993 161.329 39.8703 160.655 40.1779C159.982 40.4855 159.377 40.9235 158.876 41.4663C158.374 42.0092 157.987 42.646 157.736 43.3394C157.485 44.0329 157.376 44.7691 157.415 45.5051C157.381 46.236 157.494 46.9664 157.747 47.6534C158 48.3404 158.389 48.9702 158.89 49.5058C159.392 50.0414 159.996 50.4721 160.667 50.7725C161.338 51.073 162.062 51.2371 162.798 51.2554C163.52 51.2277 164.229 51.0551 164.882 50.7482C165.536 50.4413 166.12 50.0062 166.601 49.4692C167.081 48.9322 167.447 48.3043 167.677 47.6231C167.908 46.9419 167.997 46.2215 167.94 45.5051ZM179.09 26.3735V54.4255H174.861V26.3735H179.09ZM195.75 48.6115L199.051 50.7778C198.169 52.0851 196.977 53.1558 195.58 53.8948C194.183 54.6339 192.623 55.0184 191.041 55.0143C189.782 55.0322 188.532 54.7959 187.368 54.3197C186.203 53.8435 185.148 53.1373 184.266 52.2438C183.384 51.3503 182.693 50.2882 182.236 49.1217C181.778 47.9551 181.564 46.7085 181.605 45.4571C181.217 41.0034 184.251 36.9689 188.658 36.0802C193.063 35.1915 197.439 37.7319 198.826 41.9846L199.259 43.0838L186.443 48.356C186.842 49.2486 187.501 50.0017 188.335 50.5185C189.169 51.0353 190.139 51.292 191.121 51.2554C192.054 51.2409 192.969 50.9906 193.779 50.528C194.589 50.0654 195.267 49.4063 195.75 48.6115ZM185.642 45.1703L194.261 41.6341C193.927 40.9848 193.409 40.4471 192.772 40.0874C192.134 39.7278 191.404 39.5621 190.672 39.6108C189.973 39.6412 189.286 39.81 188.653 40.1071C188.02 40.4043 187.453 40.8239 186.984 41.3415C186.516 41.859 186.156 42.4642 185.926 43.1216C185.695 43.779 185.599 44.4754 185.642 45.1703Z" fill="white"/>
<path d="M36.6907 39.3401L15.193 61.7367C15.4343 62.5875 15.8681 63.3722 16.4612 64.0307C17.0542 64.6892 17.7909 65.2042 18.6148 65.5362C19.4386 65.8683 20.328 66.0086 21.2148 65.9465C22.1016 65.8844 22.9624 65.6216 23.7313 65.178L47.921 51.4787L36.6907 39.3401Z" fill="#EA4335"/>
<path d="M58.4296 35.5328L47.9687 29.5754L36.1941 39.8501L48.0164 51.4463L58.3977 45.5525C59.3174 45.0737 60.0877 44.3537 60.6252 43.4706C61.1627 42.5875 61.4469 41.5749 61.4469 40.5427C61.4469 39.5104 61.1627 38.4978 60.6252 37.6147C60.0877 36.7316 59.3174 36.0116 58.3977 35.5328H58.4296Z" fill="#FBBC04"/>
<path d="M15.1925 19.237C15.0624 19.7148 14.9977 20.2079 15 20.7029V60.2713C15.0015 60.7662 15.066 61.2585 15.1925 61.7367L37.4275 39.9142L15.193 19.2365L15.1925 19.237Z" fill="#4285F4"/>
<path d="M36.8512 40.4869L47.9687 29.5754L23.8105 15.813C22.9016 15.2835 21.8678 15.0029 20.8144 15C19.5427 14.9978 18.3051 15.4091 17.2902 16.1712C16.2753 16.9333 15.5388 18.0045 15.193 19.2214L36.8512 40.4869Z" fill="#34A853"/>
</g>
<defs>
<clipPath id="clip0_511_17">
<rect width="260" height="51" fill="white" transform="translate(15 15)"/>
</clipPath>
</defs>
</svg>
