<svg width="54" height="54" viewBox="0 0 54 54" fill="none" xmlns="http://www.w3.org/2000/svg">
<path d="M35.4375 27C35.4375 29.2378 34.5486 31.3839 32.9662 32.9662C31.3839 34.5486 29.2378 35.4375 27 35.4375C24.7622 35.4375 22.6161 34.5486 21.0338 32.9662C19.4514 31.3839 18.5625 29.2378 18.5625 27C18.5625 26.5191 18.6131 26.0494 18.7003 25.5938H15.75V36.8353C15.75 37.6172 16.3828 38.25 17.1647 38.25H36.8381C37.2128 38.2493 37.5719 38.0999 37.8366 37.8347C38.1013 37.5694 38.25 37.21 38.25 36.8353V25.5938H35.2997C35.3869 26.0494 35.4375 26.5191 35.4375 27ZM27 32.625C27.7389 32.6248 28.4705 32.4791 29.153 32.1962C29.8356 31.9133 30.4557 31.4987 30.9781 30.9761C31.5004 30.4535 31.9147 29.8331 32.1973 29.1504C32.4798 28.4677 32.6252 27.7361 32.625 26.9972C32.6248 26.2583 32.4791 25.5267 32.1962 24.8442C31.9133 24.1616 31.4987 23.5415 30.9761 23.0191C30.4535 22.4968 29.8331 22.0825 29.1504 21.7999C28.4677 21.5174 27.7361 21.372 26.9972 21.3722C25.505 21.3726 24.074 21.9657 23.0191 23.0211C21.9642 24.0765 21.3718 25.5078 21.3722 27C21.3726 28.4922 21.9657 29.9232 23.0211 30.9781C24.0765 32.033 25.5078 32.6254 27 32.625ZM33.75 21.0938H37.1222C37.3462 21.0938 37.5611 21.0049 37.7198 20.8468C37.8785 20.6886 37.968 20.474 37.9688 20.25V16.8778C37.9688 16.6533 37.8796 16.438 37.7208 16.2792C37.562 16.1204 37.3467 16.0312 37.1222 16.0312H33.75C33.5255 16.0312 33.3102 16.1204 33.1514 16.2792C32.9926 16.438 32.9034 16.6533 32.9034 16.8778V20.25C32.9062 20.7141 33.2859 21.0938 33.75 21.0938ZM27 0C19.8392 0 12.9716 2.84463 7.90812 7.90812C2.84463 12.9716 0 19.8392 0 27C0 34.1608 2.84463 41.0284 7.90812 46.0919C12.9716 51.1554 19.8392 54 27 54C30.5457 54 34.0567 53.3016 37.3325 51.9447C40.6082 50.5879 43.5847 48.5991 46.0919 46.0919C48.5991 43.5847 50.5879 40.6082 51.9447 37.3325C53.3016 34.0567 54 30.5457 54 27C54 23.4543 53.3016 19.9433 51.9447 16.6675C50.5879 13.3918 48.5991 10.4153 46.0919 7.90812C43.5847 5.40093 40.6082 3.41213 37.3325 2.05525C34.0567 0.698376 30.5457 0 27 0ZM41.0625 37.9378C41.0625 39.6562 39.6562 41.0625 37.9378 41.0625H16.0622C14.3438 41.0625 12.9375 39.6562 12.9375 37.9378V16.0622C12.9375 14.3438 14.3438 12.9375 16.0622 12.9375H37.9378C39.6562 12.9375 41.0625 14.3438 41.0625 16.0622V37.9378Z" fill="white"/>
</svg>
