<svg width="299" height="116" viewBox="0 0 299 116" fill="none" xmlns="http://www.w3.org/2000/svg">
<path d="M30.7613 31.0933C34.3339 24.9053 40.9365 21.0933 48.0818 21.0933L67.1745 21.0933C74.3198 21.0933 80.9224 24.9053 84.495 31.0933L94.0414 47.6281C97.614 53.8161 97.614 61.4401 94.0414 67.6281L84.495 84.1629C80.9224 90.3509 74.3198 94.1629 67.1745 94.1629L48.0818 94.1629C40.9365 94.1629 34.3339 90.3509 30.7613 84.1629L21.2149 67.6281C17.6423 61.4401 17.6423 53.8161 21.2149 47.6281L30.7613 31.0933Z" fill="#003E9A"/>
<path fill-rule="evenodd" clip-rule="evenodd" d="M57.0894 73.372C56.8798 73.239 56.5963 73.1725 56.2389 73.1725C55.9729 73.1725 55.745 73.239 55.5553 73.372H52.6422C49.4683 73.109 47.0335 72.6013 45.3378 71.8491C43.349 70.9519 41.8836 69.8304 40.9415 68.4846C40.3733 67.6921 39.9321 66.8098 39.6181 65.8378C39.3191 64.8509 38.8181 64.1107 38.1153 63.6172L38.4517 63.1462C39.1247 63.5948 39.8499 63.8191 40.6275 63.8191C41.42 63.8191 42.4294 63.7892 43.6556 63.7294C44.8818 63.6696 46.265 63.6023 47.8052 63.5275C49.3454 63.4378 50.4445 63.378 51.1024 63.3481C51.7604 63.3182 52.2464 63.2284 52.5604 63.0789C52.8744 62.9144 53.0987 62.6228 53.2333 62.2041L54.2426 62.5406C54.1978 62.6602 54.1754 62.8172 54.1754 63.0116C54.1754 63.5051 54.5866 64.0658 55.409 64.6939C56.2315 65.3219 57.7193 65.636 59.8726 65.636C61.3231 65.636 62.3549 65.3892 62.968 64.8958C63.2372 64.6715 63.3718 64.4023 63.3718 64.0883C63.3718 63.3555 62.968 62.8696 62.1605 62.6303C61.353 62.391 60.3736 62.1892 59.2222 62.0247C58.0857 61.8452 56.9417 61.7032 55.7903 61.5985C54.6539 61.4938 53.4202 61.3443 52.0893 61.1499C50.7585 60.9555 49.5024 60.7462 48.3211 60.5219C47.1397 60.2826 45.9883 59.9387 44.8668 59.4901C43.7602 59.0415 42.8107 58.5181 42.0182 57.92C41.2256 57.3069 40.5826 56.5293 40.0892 55.5872C39.6106 54.6302 39.3714 53.5461 39.3714 52.3348C39.3714 51.1236 39.5583 50.017 39.9321 49.0151C40.3209 48.0133 40.8443 47.1534 41.5023 46.4357C42.1602 45.7179 42.9528 45.0824 43.8799 44.5291C44.8219 43.9758 45.8014 43.5272 46.8182 43.1833C47.85 42.8393 48.9715 42.5627 50.1828 42.3534C52.2912 41.9646 54.28 41.7702 56.1492 41.7702C58.0184 41.7702 59.439 41.8001 60.411 41.8599C61.3979 41.9048 62.5493 42.002 63.8652 42.1515C65.1961 42.2861 66.3924 42.5178 67.4541 42.8468C68.5307 43.1608 69.5924 43.5646 70.6392 44.0581C72.8224 45.0749 74.3551 46.6525 75.2374 48.7908C75.5962 49.5535 76.0897 50.2638 76.7178 50.9217L76.4262 51.4376C75.7981 51.004 75.0729 50.7871 74.2504 50.7871H73.9588C72.7625 50.832 71.0504 50.9217 68.8223 51.0563C66.6092 51.1759 65.1811 51.2507 64.5381 51.2806C63.9101 51.3105 63.454 51.4002 63.1699 51.5498C62.9007 51.6993 62.7063 51.9834 62.5867 52.4021L61.5998 52.1329C61.6446 51.9984 61.6671 51.8563 61.6671 51.7068C61.6671 51.0787 61.1586 50.5404 60.1418 50.0918C59.125 49.6282 57.9735 49.3965 56.6875 49.3965C54.1754 49.3965 52.9193 49.8899 52.9193 50.8769C52.9193 51.7591 54.8034 52.4021 58.5717 52.8059C59.4539 52.9105 60.4558 53.0152 61.5773 53.1199C65.4802 53.5236 68.4709 54.0545 70.5494 54.7124C74.9159 56.0881 77.0991 58.7125 77.0991 62.5854C77.0991 64.1705 76.7701 65.5986 76.1121 66.8696C75.4542 68.1257 74.5944 69.15 73.5327 69.9426C72.4859 70.7351 71.2448 71.3931 69.8092 71.9164C67.2223 72.8585 64.269 73.3295 60.9493 73.3295C60.0521 73.3295 59.5212 73.3221 59.3567 73.3071C59.2059 73.3071 59.0692 73.3287 58.9466 73.372H57.0894Z" fill="white"/>
<path d="M146.082 48.5664C146.082 49.3802 145.757 50.0638 145.105 50.6172C144.487 51.138 143.722 51.3984 142.811 51.3984H122.156C121.733 51.3984 121.391 51.4798 121.131 51.6426C120.87 51.8053 120.675 51.9844 120.545 52.1797C120.415 52.3424 120.35 52.4889 120.35 52.6191C120.35 52.7819 120.415 52.9609 120.545 53.1562C120.675 53.319 120.87 53.4818 121.131 53.6445C121.391 53.7747 121.733 53.8561 122.156 53.8887H138.123C140.174 53.9212 141.867 54.3281 143.201 55.1094C144.536 55.8581 145.48 56.7533 146.033 57.7949C146.619 58.804 146.912 59.8294 146.912 60.8711C146.912 61.8802 146.619 62.9056 146.033 63.9473C145.447 64.9564 144.487 65.8516 143.152 66.6328C141.85 67.3815 140.174 67.7559 138.123 67.7559C137.765 67.7884 137.505 67.8047 137.342 67.8047H118.396C117.485 67.8047 116.704 67.5443 116.053 67.0234C115.434 66.4701 115.125 65.8027 115.125 65.0215C115.125 64.2077 115.451 63.5241 116.102 62.9707C116.72 62.4499 117.485 62.1895 118.396 62.1895H138.514C139.002 62.222 139.393 62.1569 139.686 61.9941C140.011 61.8314 140.255 61.6523 140.418 61.457C140.581 61.2617 140.662 61.0664 140.662 60.8711C140.662 60.7734 140.581 60.6107 140.418 60.3828C140.255 60.1224 140.011 59.9271 139.686 59.7969C139.393 59.6341 139.002 59.5365 138.514 59.5039H122.498C120.61 59.4714 119.048 59.0807 117.811 58.332C116.574 57.5508 115.695 56.6556 115.174 55.6465C114.653 54.6374 114.393 53.6283 114.393 52.6191C114.393 51.61 114.653 50.6172 115.174 49.6406C115.727 48.6315 116.606 47.7689 117.811 47.0527C119.048 46.304 120.61 45.8971 122.498 45.832C122.824 45.7995 123.068 45.7832 123.23 45.7832H142.811C143.722 45.7832 144.487 46.0599 145.105 46.6133C145.757 47.1341 146.082 47.7852 146.082 48.5664ZM162.928 38.3125C163.839 38.3125 164.62 38.6217 165.271 39.2402C165.923 39.8262 166.264 40.5749 166.297 41.4863V45.7344H182.898C183.81 45.7344 184.591 46.0436 185.242 46.6621C185.861 47.3132 186.17 48.0944 186.17 49.0059C186.17 49.9173 185.844 50.6986 185.193 51.3496C184.575 51.9681 183.81 52.2773 182.898 52.2773H166.297V53.2539C166.264 54.5885 166.346 55.8255 166.541 56.9648C166.769 58.0716 167.29 59.0645 168.104 59.9434C168.917 60.8223 169.943 61.2943 171.18 61.3594H183.094C184.005 61.3919 184.754 61.7337 185.34 62.3848C185.958 63.0358 186.268 63.8171 186.268 64.7285C186.235 65.6074 185.91 66.3561 185.291 66.9746C184.705 67.5605 183.973 67.8698 183.094 67.9023H169.52C167.241 67.7721 165.353 67.0072 163.855 65.6074C162.391 64.1751 161.333 62.4336 160.682 60.3828C160.063 58.332 159.738 56.151 159.705 53.8398V52.2773H154.09C153.178 52.2773 152.413 51.9518 151.795 51.3008C151.144 50.6823 150.818 49.9173 150.818 49.0059C150.818 48.0944 151.128 47.3294 151.746 46.7109C152.397 46.0599 153.178 45.7344 154.09 45.7344H159.705V41.4863C159.738 40.6074 160.063 39.875 160.682 39.2891C161.3 38.6706 162.049 38.3451 162.928 38.3125ZM194.227 45.1484C195.138 45.1484 195.919 45.4577 196.57 46.0762C197.221 46.6621 197.563 47.4108 197.596 48.3223V53.2539C197.563 54.5885 197.645 55.8255 197.84 56.9648C198.068 58.0716 198.589 59.0645 199.402 59.9434C200.216 60.8223 201.242 61.2943 202.479 61.3594H215.516V48.4199C215.516 47.5085 215.841 46.7598 216.492 46.1738C217.176 45.5553 217.973 45.2461 218.885 45.2461C220.838 45.4089 221.912 46.4668 222.107 48.4199V64.3379C222.107 66.9421 221.749 69.3997 221.033 71.7109C220.382 73.7617 219.308 75.487 217.811 76.8867C216.346 78.319 214.474 79.1003 212.195 79.2305H195.301C194.422 79.1979 193.673 78.8724 193.055 78.2539C192.469 77.668 192.16 76.9355 192.127 76.0566C192.127 75.1452 192.42 74.3639 193.006 73.7129C193.624 73.0618 194.389 72.7201 195.301 72.6875H210.535C211.772 72.6224 212.798 72.1504 213.611 71.2715C214.425 70.3926 214.946 69.3672 215.174 68.1953C215.206 68.0977 215.223 68 215.223 67.9023H200.818C198.54 67.7721 196.652 67.0072 195.154 65.6074C193.689 64.1751 192.632 62.4336 191.98 60.3828C191.362 58.332 191.036 56.151 191.004 53.8398V48.3223C191.036 47.4434 191.362 46.7109 191.98 46.125C192.599 45.5065 193.348 45.181 194.227 45.1484ZM231.873 38.3125C232.752 38.3451 233.501 38.6706 234.119 39.2891C234.738 39.875 235.063 40.6074 235.096 41.4863V65.4121C234.9 67.3652 233.826 68.4232 231.873 68.5859C230.962 68.5859 230.164 68.293 229.48 67.707C228.829 67.0885 228.504 66.3236 228.504 65.4121V41.4863C228.536 40.5749 228.878 39.8262 229.529 39.2402C230.18 38.6217 230.962 38.3125 231.873 38.3125ZM238.074 51.9355C239.018 50.4056 240.825 49.2826 243.494 48.5664L256.043 45.1973C256.922 44.9368 257.752 45.0182 258.533 45.4414C259.347 45.832 259.884 46.4668 260.145 47.3457C260.438 48.1921 260.372 49.0221 259.949 49.8359C259.559 50.6172 258.924 51.1543 258.045 51.4473L244.666 54.9141C243.722 55.2721 243.266 55.8906 243.299 56.7695C243.266 57.6484 243.722 58.2669 244.666 58.625L258.045 62.0918C258.924 62.3848 259.559 62.9382 259.949 63.752C260.372 64.5332 260.438 65.347 260.145 66.1934C259.884 67.0723 259.347 67.707 258.533 68.0977C257.752 68.5208 256.922 68.6022 256.043 68.3418L243.494 64.9727C240.792 64.224 238.969 63.0846 238.025 61.5547C237.114 60.0247 236.658 58.4297 236.658 56.7695C236.658 55.1094 237.13 53.498 238.074 51.9355ZM275.428 67.9023C272.563 67.8047 270.398 67.1374 268.934 65.9004C267.469 64.6309 266.411 63.2148 265.76 61.6523C265.109 60.0573 264.783 58.446 264.783 56.8184C264.783 55.1257 265.092 53.498 265.711 51.9355C266.362 50.3405 267.42 48.9245 268.885 47.6875C270.382 46.418 272.27 45.7669 274.549 45.7344H293.104C294.015 45.7344 294.78 46.0436 295.398 46.6621C296.049 47.248 296.375 47.9642 296.375 48.8105C296.375 49.6895 296.049 50.4382 295.398 51.0566C294.78 51.6426 294.015 51.9355 293.104 51.9355H274.842C274.126 51.9355 273.491 52.1797 272.938 52.668C272.417 53.1562 272.026 53.791 271.766 54.5723C271.538 55.3535 271.424 56.1185 271.424 56.8672C271.424 57.681 271.538 58.4785 271.766 59.2598C272.026 60.041 272.417 60.6758 272.938 61.1641C273.491 61.6198 274.126 61.8639 274.842 61.8965H293.104C294.015 61.8965 294.78 62.1895 295.398 62.7754C296.049 63.3613 296.375 64.0612 296.375 64.875C296.375 65.7214 296.049 66.4375 295.398 67.0234C294.78 67.6094 294.015 67.9023 293.104 67.9023H275.428ZM295.789 56.7207C295.789 57.3392 295.512 57.8763 294.959 58.332C294.471 58.7552 293.852 58.9668 293.104 58.9668H277.137C276.388 58.9668 275.753 58.7552 275.232 58.332C274.712 57.8763 274.451 57.3392 274.451 56.7207C274.451 56.1348 274.712 55.6139 275.232 55.1582C275.753 54.735 276.388 54.5234 277.137 54.5234H293.104C293.852 54.5234 294.487 54.7513 295.008 55.207C295.529 55.6302 295.789 56.1348 295.789 56.7207Z" fill="white"/>
</svg>
