<svg width="54" height="54" viewBox="0 0 54 54" fill="none" xmlns="http://www.w3.org/2000/svg">
<path d="M27 0C41.9271 0 54 12.0729 54 27C54 41.9271 41.9271 54 27 54C12.0729 54 0 41.9271 0 27C0 12.0729 12.0729 0 27 0ZM22.0629 41.2329C34.02 41.2329 40.5771 31.32 40.5771 22.7186V21.87C41.85 20.9443 42.9686 19.7871 43.8171 18.4757C42.66 18.9771 41.3871 19.3243 40.0757 19.5171C41.4257 18.7071 42.4671 17.4343 42.93 15.93C41.6571 16.6629 40.2686 17.2029 38.8029 17.5114C37.6071 16.2386 35.91 15.4671 34.0586 15.4671C30.4714 15.4671 27.54 18.3986 27.54 21.9857C27.54 22.4871 27.5786 22.9886 27.7329 23.4514C22.3329 23.1814 17.5114 20.5971 14.31 16.6629C13.77 17.6271 13.4229 18.7457 13.4229 19.9414C13.4229 22.1786 14.58 24.1843 16.3157 25.3414C15.2357 25.3414 14.2329 25.0329 13.3843 24.5314V24.6086C13.3843 27.7714 15.6214 30.3943 18.5914 31.0114C18.0514 31.1657 17.4729 31.2429 16.8943 31.2429C16.47 31.2429 16.0843 31.2043 15.66 31.1271C16.47 33.7114 18.9 35.6014 21.7157 35.64C19.4786 37.3757 16.6629 38.4171 13.6157 38.4171C13.0757 38.4171 12.5743 38.4171 12.0729 38.34C14.9271 40.1914 18.36 41.2714 22.0243 41.2714" fill="white"/>
</svg>
